<svg width="546" height="157" viewBox="0 0 546 157" fill="none" xmlns="http://www.w3.org/2000/svg">
<path d="M192.794 101.421L189.674 91.2209H174.074L170.954 101.421H161.174L176.294 58.4009H187.394L202.574 101.421H192.794ZM184.394 73.6409C184.194 72.9609 183.934 72.1009 183.614 71.0609C183.294 70.0209 182.974 68.9609 182.654 67.8809C182.334 66.8009 182.074 65.8609 181.874 65.0609C181.674 65.8609 181.394 66.8609 181.034 68.0609C180.714 69.2209 180.394 70.3409 180.074 71.4209C179.794 72.4609 179.574 73.2009 179.414 73.6409L176.354 83.6009H187.514L184.394 73.6409ZM245.98 101.421H234.46L215.8 69.0209H215.56C215.6 70.0209 215.64 71.0409 215.68 72.0809C215.72 73.0809 215.76 74.1009 215.8 75.1409C215.88 76.1409 215.94 77.1609 215.98 78.2009C216.02 79.2009 216.06 80.2209 216.1 81.2609V101.421H208V58.5809H219.46L238.06 90.6809H238.24C238.2 89.6809 238.16 88.7009 238.12 87.7409C238.08 86.7409 238.04 85.7609 238 84.8009C238 83.8009 237.98 82.8209 237.94 81.8609C237.9 80.8609 237.86 79.8609 237.82 78.8609V58.5809H245.98V101.421ZM294.789 101.421H283.269L264.609 69.0209H264.369C264.409 70.0209 264.449 71.0409 264.489 72.0809C264.529 73.0809 264.569 74.1009 264.609 75.1409C264.689 76.1409 264.749 77.1609 264.789 78.2009C264.829 79.2009 264.869 80.2209 264.909 81.2609V101.421H256.809V58.5809H268.269L286.869 90.6809H287.049C287.009 89.6809 286.969 88.7009 286.929 87.7409C286.889 86.7409 286.849 85.7609 286.809 84.8009C286.809 83.8009 286.789 82.8209 286.749 81.8609C286.709 80.8609 286.669 79.8609 286.629 78.8609V58.5809H294.789V101.421ZM347.716 101.421L344.596 91.2209H328.996L325.876 101.421H316.096L331.216 58.4009H342.316L357.496 101.421H347.716ZM339.316 73.6409C339.116 72.9609 338.856 72.1009 338.536 71.0609C338.216 70.0209 337.896 68.9609 337.576 67.8809C337.256 66.8009 336.996 65.8609 336.796 65.0609C336.596 65.8609 336.316 66.8609 335.956 68.0609C335.636 69.2209 335.316 70.3409 334.996 71.4209C334.716 72.4609 334.496 73.2009 334.336 73.6409L331.276 83.6009H342.436L339.316 73.6409ZM378.942 101.421H359.442V96.2609L364.662 93.8609V66.1409L359.442 63.7409V58.5809H378.942V63.7409L373.722 66.1409V93.8609L378.942 96.2609V101.421Z" fill="#4B94AA"/>
<path d="M22.5486 107.352L78.3234 5.21619L134.098 107.352H22.5486Z" stroke="#165C70" stroke-width="5"/>
<path d="M22.5486 107.352L78.3234 5.21619L134.098 107.352H22.5486Z" stroke="#165C70" stroke-width="5"/>
<path d="M22.5486 107.352L78.3234 5.21619L134.098 107.352H22.5486Z" stroke="#165C70" stroke-width="5"/>
<path d="M45.1854 117.882L100.96 15.7465L156.735 117.882H45.1854Z" stroke="#165C70" stroke-width="5"/>
<path d="M45.1854 117.882L100.96 15.7465L156.735 117.882H45.1854Z" stroke="#165C70" stroke-width="5"/>
<path d="M45.1854 117.882L100.96 15.7465L156.735 117.882H45.1854Z" stroke="#589FAF" stroke-width="5"/>
<path d="M8.94478 97.5397L35.3134 49.2528L61.6821 97.5397H8.94478Z" stroke="#165C70" stroke-width="5"/>
<path d="M8.94478 97.5397L35.3134 49.2528L61.6821 97.5397H8.94478Z" stroke="#165C70" stroke-width="5"/>
<path d="M8.94478 97.5397L35.3134 49.2528L61.6821 97.5397H8.94478Z" stroke="#00F0FF" stroke-width="5"/>
<path d="M180.687 122.774L179.387 118.524H172.887L171.587 122.774H167.512L173.812 104.849H178.437L184.762 122.774H180.687ZM177.187 111.199C177.104 110.916 176.996 110.558 176.862 110.124C176.729 109.691 176.596 109.249 176.462 108.799C176.329 108.349 176.221 107.958 176.137 107.624C176.054 107.958 175.937 108.374 175.787 108.874C175.654 109.358 175.521 109.824 175.387 110.274C175.271 110.708 175.179 111.016 175.112 111.199L173.837 115.349H178.487L177.187 111.199ZM197.364 122.774H193.639V104.924H203.864V108.024H197.364V112.624H203.414V115.724H197.364V122.774ZM219.585 109.124V122.774H216.735L216.235 121.024H216.035C215.752 121.491 215.385 121.874 214.935 122.174C214.502 122.458 214.018 122.666 213.485 122.799C212.952 122.949 212.402 123.024 211.835 123.024C210.868 123.024 210.018 122.849 209.285 122.499C208.552 122.149 207.985 121.608 207.585 120.874C207.185 120.141 206.985 119.191 206.985 118.024V109.124H210.71V117.099C210.71 118.066 210.885 118.799 211.235 119.299C211.585 119.799 212.143 120.049 212.91 120.049C213.677 120.049 214.268 119.874 214.685 119.524C215.118 119.174 215.418 118.666 215.585 117.999C215.768 117.333 215.86 116.516 215.86 115.549V109.124H219.585ZM231.241 108.874C232.707 108.874 233.882 109.274 234.766 110.074C235.649 110.858 236.091 112.124 236.091 113.874V122.774H232.366V114.799C232.366 113.816 232.191 113.083 231.841 112.599C231.491 112.099 230.932 111.849 230.166 111.849C229.032 111.849 228.257 112.241 227.841 113.024C227.424 113.791 227.216 114.899 227.216 116.349V122.774H223.491V109.124H226.341L226.841 110.874H227.041C227.341 110.408 227.707 110.033 228.141 109.749C228.574 109.449 229.057 109.233 229.591 109.099C230.124 108.949 230.674 108.874 231.241 108.874ZM257.763 122.774L256.463 118.524H249.963L248.663 122.774H244.588L250.888 104.849H255.513L261.838 122.774H257.763ZM254.263 111.199C254.179 110.916 254.071 110.558 253.938 110.124C253.804 109.691 253.671 109.249 253.538 108.799C253.404 108.349 253.296 107.958 253.213 107.624C253.129 107.958 253.013 108.374 252.863 108.874C252.729 109.358 252.596 109.824 252.463 110.274C252.346 110.708 252.254 111.016 252.188 111.199L250.913 115.349H255.563L254.263 111.199ZM270.773 122.774H262.648V120.624L264.823 119.624V108.074L262.648 107.074V104.924H270.773V107.074L268.598 108.074V119.624L270.773 120.624V122.774ZM287.106 122.774H278.981V120.624L281.156 119.624V108.074L278.981 107.074V104.924H287.106V107.074L284.931 108.074V119.624L287.106 120.624V122.774ZM305.873 108.874C307.423 108.874 308.59 109.274 309.373 110.074C310.173 110.858 310.573 112.124 310.573 113.874V122.774H306.848V114.799C306.848 113.816 306.682 113.083 306.348 112.599C306.015 112.099 305.498 111.849 304.798 111.849C303.815 111.849 303.115 112.199 302.698 112.899C302.282 113.599 302.073 114.608 302.073 115.924V122.774H298.348V114.799C298.348 114.149 298.273 113.608 298.123 113.174C297.973 112.741 297.748 112.416 297.448 112.199C297.148 111.966 296.765 111.849 296.298 111.849C295.615 111.849 295.073 112.024 294.673 112.374C294.273 112.724 293.99 113.233 293.823 113.899C293.657 114.566 293.573 115.383 293.573 116.349V122.774H289.848V109.124H292.698L293.198 110.874H293.398C293.682 110.408 294.032 110.033 294.448 109.749C294.865 109.449 295.323 109.233 295.823 109.099C296.34 108.949 296.857 108.874 297.373 108.874C298.373 108.874 299.223 109.041 299.923 109.374C300.623 109.691 301.157 110.191 301.523 110.874H301.848C302.265 110.174 302.84 109.666 303.573 109.349C304.323 109.033 305.09 108.874 305.873 108.874ZM320.009 108.849C321.842 108.849 323.242 109.249 324.209 110.049C325.192 110.833 325.684 112.041 325.684 113.674V122.774H323.084L322.359 120.924H322.259C321.875 121.408 321.475 121.808 321.059 122.124C320.659 122.441 320.192 122.666 319.659 122.799C319.142 122.949 318.5 123.024 317.734 123.024C316.934 123.024 316.209 122.874 315.559 122.574C314.925 122.258 314.425 121.783 314.059 121.149C313.692 120.499 313.509 119.683 313.509 118.699C313.509 117.249 314.017 116.183 315.034 115.499C316.05 114.799 317.575 114.416 319.609 114.349L321.984 114.274V113.674C321.984 112.958 321.792 112.433 321.409 112.099C321.042 111.766 320.525 111.599 319.859 111.599C319.192 111.599 318.542 111.699 317.909 111.899C317.275 112.083 316.642 112.316 316.009 112.599L314.784 110.074C315.517 109.691 316.325 109.391 317.209 109.174C318.109 108.958 319.042 108.849 320.009 108.849ZM320.534 116.499C319.334 116.533 318.5 116.749 318.034 117.149C317.567 117.549 317.334 118.074 317.334 118.724C317.334 119.291 317.5 119.699 317.834 119.949C318.167 120.183 318.6 120.299 319.134 120.299C319.934 120.299 320.609 120.066 321.159 119.599C321.709 119.116 321.984 118.441 321.984 117.574V116.449L320.534 116.499ZM333.922 108.874C334.755 108.874 335.505 109.041 336.172 109.374C336.838 109.708 337.405 110.208 337.872 110.874H337.972L338.272 109.124H341.422V122.799C341.422 124.099 341.163 125.191 340.647 126.074C340.147 126.958 339.388 127.624 338.372 128.074C337.355 128.541 336.097 128.774 334.597 128.774C333.63 128.774 332.73 128.716 331.897 128.599C331.08 128.483 330.28 128.274 329.497 127.974V124.999C330.063 125.233 330.63 125.424 331.197 125.574C331.78 125.741 332.372 125.858 332.972 125.924C333.588 126.008 334.205 126.049 334.822 126.049C335.788 126.049 336.505 125.791 336.972 125.274C337.455 124.758 337.697 123.983 337.697 122.949V122.674C337.697 122.391 337.705 122.099 337.722 121.799C337.755 121.499 337.78 121.233 337.797 120.999H337.697C337.23 121.716 336.672 122.233 336.022 122.549C335.372 122.866 334.638 123.024 333.822 123.024C332.205 123.024 330.938 122.408 330.022 121.174C329.122 119.924 328.672 118.191 328.672 115.974C328.672 114.474 328.88 113.199 329.297 112.149C329.713 111.083 330.313 110.274 331.097 109.724C331.897 109.158 332.838 108.874 333.922 108.874ZM335.097 111.899C334.513 111.899 334.022 112.058 333.622 112.374C333.238 112.674 332.947 113.133 332.747 113.749C332.563 114.349 332.472 115.108 332.472 116.024C332.472 117.391 332.688 118.416 333.122 119.099C333.555 119.766 334.23 120.099 335.147 120.099C335.63 120.099 336.047 120.041 336.397 119.924C336.747 119.791 337.03 119.583 337.247 119.299C337.48 118.999 337.655 118.616 337.772 118.149C337.888 117.683 337.947 117.116 337.947 116.449V115.999C337.947 115.016 337.847 114.224 337.647 113.624C337.447 113.024 337.138 112.591 336.722 112.324C336.305 112.041 335.763 111.899 335.097 111.899ZM350.942 108.874C352.209 108.874 353.292 109.116 354.192 109.599C355.109 110.083 355.817 110.783 356.317 111.699C356.817 112.616 357.067 113.741 357.067 115.074V116.874H348.267C348.3 117.924 348.609 118.749 349.192 119.349C349.792 119.949 350.617 120.249 351.667 120.249C352.55 120.249 353.35 120.166 354.067 119.999C354.784 119.816 355.525 119.541 356.292 119.174V122.049C355.625 122.383 354.917 122.624 354.167 122.774C353.434 122.941 352.542 123.024 351.492 123.024C350.125 123.024 348.917 122.774 347.867 122.274C346.817 121.758 345.992 120.983 345.392 119.949C344.792 118.916 344.492 117.616 344.492 116.049C344.492 114.449 344.759 113.124 345.292 112.074C345.842 111.008 346.6 110.208 347.567 109.674C348.534 109.141 349.659 108.874 350.942 108.874ZM350.967 111.524C350.25 111.524 349.65 111.758 349.167 112.224C348.7 112.691 348.425 113.416 348.342 114.399H353.567C353.567 113.849 353.467 113.358 353.267 112.924C353.084 112.491 352.8 112.149 352.417 111.899C352.034 111.649 351.55 111.524 350.967 111.524ZM373.779 112.749H380.854V121.999C379.92 122.316 378.945 122.566 377.929 122.749C376.929 122.933 375.787 123.024 374.504 123.024C372.737 123.024 371.229 122.674 369.979 121.974C368.745 121.274 367.804 120.241 367.154 118.874C366.52 117.508 366.204 115.824 366.204 113.824C366.204 111.958 366.562 110.341 367.279 108.974C368.012 107.608 369.07 106.549 370.454 105.799C371.837 105.049 373.529 104.674 375.529 104.674C376.479 104.674 377.412 104.774 378.329 104.974C379.245 105.174 380.079 105.441 380.829 105.774L379.579 108.799C379.029 108.516 378.404 108.283 377.704 108.099C377.004 107.916 376.27 107.824 375.504 107.824C374.404 107.824 373.445 108.074 372.629 108.574C371.829 109.074 371.204 109.783 370.754 110.699C370.32 111.599 370.104 112.666 370.104 113.899C370.104 115.066 370.262 116.099 370.579 116.999C370.895 117.899 371.395 118.608 372.079 119.124C372.762 119.624 373.654 119.874 374.754 119.874C375.12 119.874 375.437 119.866 375.704 119.849C375.987 119.816 376.245 119.783 376.479 119.749C376.712 119.699 376.937 119.658 377.154 119.624V115.899H373.779V112.749ZM390.419 108.874C391.686 108.874 392.769 109.116 393.669 109.599C394.586 110.083 395.294 110.783 395.794 111.699C396.294 112.616 396.544 113.741 396.544 115.074V116.874H387.744C387.778 117.924 388.086 118.749 388.669 119.349C389.269 119.949 390.094 120.249 391.144 120.249C392.028 120.249 392.828 120.166 393.544 119.999C394.261 119.816 395.003 119.541 395.769 119.174V122.049C395.103 122.383 394.394 122.624 393.644 122.774C392.911 122.941 392.019 123.024 390.969 123.024C389.603 123.024 388.394 122.774 387.344 122.274C386.294 121.758 385.469 120.983 384.869 119.949C384.269 118.916 383.969 117.616 383.969 116.049C383.969 114.449 384.236 113.124 384.769 112.074C385.319 111.008 386.078 110.208 387.044 109.674C388.011 109.141 389.136 108.874 390.419 108.874ZM390.444 111.524C389.728 111.524 389.128 111.758 388.644 112.224C388.178 112.691 387.903 113.416 387.819 114.399H393.044C393.044 113.849 392.944 113.358 392.744 112.924C392.561 112.491 392.278 112.149 391.894 111.899C391.511 111.649 391.028 111.524 390.444 111.524ZM407.315 108.874C408.782 108.874 409.957 109.274 410.84 110.074C411.723 110.858 412.165 112.124 412.165 113.874V122.774H408.44V114.799C408.44 113.816 408.265 113.083 407.915 112.599C407.565 112.099 407.007 111.849 406.24 111.849C405.107 111.849 404.332 112.241 403.915 113.024C403.498 113.791 403.29 114.899 403.29 116.349V122.774H399.565V109.124H402.415L402.915 110.874H403.115C403.415 110.408 403.782 110.033 404.215 109.749C404.648 109.449 405.132 109.233 405.665 109.099C406.198 108.949 406.748 108.874 407.315 108.874ZM421.621 108.874C422.887 108.874 423.971 109.116 424.871 109.599C425.787 110.083 426.496 110.783 426.996 111.699C427.496 112.616 427.746 113.741 427.746 115.074V116.874H418.946C418.979 117.924 419.287 118.749 419.871 119.349C420.471 119.949 421.296 120.249 422.346 120.249C423.229 120.249 424.029 120.166 424.746 119.999C425.462 119.816 426.204 119.541 426.971 119.174V122.049C426.304 122.383 425.596 122.624 424.846 122.774C424.112 122.941 423.221 123.024 422.171 123.024C420.804 123.024 419.596 122.774 418.546 122.274C417.496 121.758 416.671 120.983 416.071 119.949C415.471 118.916 415.171 117.616 415.171 116.049C415.171 114.449 415.437 113.124 415.971 112.074C416.521 111.008 417.279 110.208 418.246 109.674C419.212 109.141 420.337 108.874 421.621 108.874ZM421.646 111.524C420.929 111.524 420.329 111.758 419.846 112.224C419.379 112.691 419.104 113.416 419.021 114.399H424.246C424.246 113.849 424.146 113.358 423.946 112.924C423.762 112.491 423.479 112.149 423.096 111.899C422.712 111.649 422.229 111.524 421.646 111.524ZM438.391 108.874C438.574 108.874 438.791 108.883 439.041 108.899C439.291 108.916 439.491 108.941 439.641 108.974L439.366 112.474C439.249 112.441 439.074 112.416 438.841 112.399C438.624 112.366 438.433 112.349 438.266 112.349C437.783 112.349 437.316 112.416 436.866 112.549C436.416 112.666 436.008 112.858 435.641 113.124C435.291 113.391 435.008 113.749 434.791 114.199C434.591 114.633 434.491 115.174 434.491 115.824V122.774H430.766V109.124H433.591L434.141 111.424H434.316C434.583 110.958 434.916 110.533 435.316 110.149C435.716 109.766 436.174 109.458 436.691 109.224C437.224 108.991 437.791 108.874 438.391 108.874ZM447.23 108.849C449.064 108.849 450.464 109.249 451.43 110.049C452.414 110.833 452.905 112.041 452.905 113.674V122.774H450.305L449.58 120.924H449.48C449.097 121.408 448.697 121.808 448.28 122.124C447.88 122.441 447.414 122.666 446.88 122.799C446.364 122.949 445.722 123.024 444.955 123.024C444.155 123.024 443.43 122.874 442.78 122.574C442.147 122.258 441.647 121.783 441.28 121.149C440.914 120.499 440.73 119.683 440.73 118.699C440.73 117.249 441.239 116.183 442.255 115.499C443.272 114.799 444.797 114.416 446.83 114.349L449.205 114.274V113.674C449.205 112.958 449.014 112.433 448.63 112.099C448.264 111.766 447.747 111.599 447.08 111.599C446.414 111.599 445.764 111.699 445.13 111.899C444.497 112.083 443.864 112.316 443.23 112.599L442.005 110.074C442.739 109.691 443.547 109.391 444.43 109.174C445.33 108.958 446.264 108.849 447.23 108.849ZM447.755 116.499C446.555 116.533 445.722 116.749 445.255 117.149C444.789 117.549 444.555 118.074 444.555 118.724C444.555 119.291 444.722 119.699 445.055 119.949C445.389 120.183 445.822 120.299 446.355 120.299C447.155 120.299 447.83 120.066 448.38 119.599C448.93 119.116 449.205 118.441 449.205 117.574V116.449L447.755 116.499ZM462.468 120.049C462.885 120.049 463.285 120.008 463.668 119.924C464.052 119.841 464.435 119.741 464.818 119.624V122.399C464.418 122.566 463.918 122.708 463.318 122.824C462.735 122.958 462.093 123.024 461.393 123.024C460.577 123.024 459.843 122.891 459.193 122.624C458.56 122.358 458.052 121.899 457.668 121.249C457.302 120.583 457.118 119.666 457.118 118.499V111.924H455.343V110.349L457.393 109.099L458.468 106.224H460.843V109.124H464.668V111.924H460.843V118.499C460.843 119.016 460.993 119.408 461.293 119.674C461.593 119.924 461.985 120.049 462.468 120.049ZM479.958 115.924C479.958 117.058 479.8 118.066 479.483 118.949C479.183 119.833 478.741 120.583 478.158 121.199C477.591 121.799 476.9 122.258 476.083 122.574C475.266 122.874 474.341 123.024 473.308 123.024C472.358 123.024 471.475 122.874 470.658 122.574C469.858 122.258 469.166 121.799 468.583 121.199C468 120.583 467.541 119.833 467.208 118.949C466.891 118.066 466.733 117.058 466.733 115.924C466.733 114.408 467 113.133 467.533 112.099C468.066 111.049 468.833 110.249 469.833 109.699C470.833 109.149 472.016 108.874 473.383 108.874C474.666 108.874 475.8 109.149 476.783 109.699C477.766 110.249 478.541 111.049 479.108 112.099C479.675 113.133 479.958 114.408 479.958 115.924ZM470.533 115.924C470.533 116.824 470.625 117.583 470.808 118.199C471.008 118.799 471.316 119.258 471.733 119.574C472.15 119.874 472.691 120.024 473.358 120.024C474.025 120.024 474.558 119.874 474.958 119.574C475.375 119.258 475.675 118.799 475.858 118.199C476.058 117.583 476.158 116.824 476.158 115.924C476.158 115.024 476.058 114.274 475.858 113.674C475.675 113.074 475.375 112.624 474.958 112.324C474.541 112.024 474 111.874 473.333 111.874C472.35 111.874 471.633 112.216 471.183 112.899C470.75 113.566 470.533 114.574 470.533 115.924ZM490.662 108.874C490.845 108.874 491.062 108.883 491.312 108.899C491.562 108.916 491.762 108.941 491.912 108.974L491.637 112.474C491.52 112.441 491.345 112.416 491.112 112.399C490.895 112.366 490.703 112.349 490.537 112.349C490.053 112.349 489.587 112.416 489.137 112.549C488.687 112.666 488.278 112.858 487.912 113.124C487.562 113.391 487.278 113.749 487.062 114.199C486.862 114.633 486.762 115.174 486.762 115.824V122.774H483.037V109.124H485.862L486.412 111.424H486.587C486.853 110.958 487.187 110.533 487.587 110.149C487.987 109.766 488.445 109.458 488.962 109.224C489.495 108.991 490.062 108.874 490.662 108.874Z" fill="#00D8FF"/>
</svg>
