<svg xmlns="http://www.w3.org/2000/svg" version="1.1" xmlns:xlink="http://www.w3.org/1999/xlink" xmlns:svgjs="http://svgjs.com/svgjs" width="1000" height="1000"><rect width="1000" height="1000" rx="200" ry="200" fill="#ffffff"></rect><g transform="matrix(4.678362573099415,0,0,4.678362573099415,109.78484379060092,195.10009970023617)"><svg xmlns="http://www.w3.org/2000/svg" version="1.1" xmlns:xlink="http://www.w3.org/1999/xlink" xmlns:svgjs="http://svgjs.com/svgjs" width="171" height="157"><svg width="171" height="157" viewBox="0 0 171 157" fill="none" xmlns="http://www.w3.org/2000/svg">
<path d="M22.5486 107.352L78.3234 5.21619L134.098 107.352H22.5486Z" stroke="#165C70" stroke-width="5"></path>
<path d="M22.5486 107.352L78.3234 5.21619L134.098 107.352H22.5486Z" stroke="#165C70" stroke-width="5"></path>
<path d="M22.5486 107.352L78.3234 5.21619L134.098 107.352H22.5486Z" stroke="#165C70" stroke-width="5"></path>
<path d="M45.1854 117.882L100.96 15.7465L156.735 117.882H45.1854Z" stroke="#165C70" stroke-width="5"></path>
<path d="M45.1854 117.882L100.96 15.7465L156.735 117.882H45.1854Z" stroke="#165C70" stroke-width="5"></path>
<path d="M45.1854 117.882L100.96 15.7465L156.735 117.882H45.1854Z" stroke="#589FAF" stroke-width="5"></path>
<path d="M8.94478 97.5397L35.3134 49.2528L61.6821 97.5397H8.94478Z" stroke="#165C70" stroke-width="5"></path>
<path d="M8.94478 97.5397L35.3134 49.2528L61.6821 97.5397H8.94478Z" stroke="#165C70" stroke-width="5"></path>
<path d="M8.94478 97.5397L35.3134 49.2528L61.6821 97.5397H8.94478Z" stroke="#00F0FF" stroke-width="5"></path>
</svg></svg></g></svg>